<?xml version="1.0" ?><!DOCTYPE svg  PUBLIC '-//W3C//DTD SVG 1.1//EN'  'http://www.w3.org/Graphics/SVG/1.1/DTD/svg11.dtd'><svg enable-background="new 0 0 64 64" height="64px" id="Digg" version="1.1" viewBox="0 0 64 64" width="64px" xml:space="preserve" xmlns="http://www.w3.org/2000/svg" xmlns:xlink="http://www.w3.org/1999/xlink"><linearGradient gradientTransform="matrix(1 0 0 -1 -274 -299)" gradientUnits="userSpaceOnUse" id="Circle_Shadow_1_" x1="338.0293" x2="306.0293" y1="-362.9995" y2="-330.9995"><stop offset="0.3163" style="stop-color:#FFFFFF;stop-opacity:0"/><stop offset="0.3508" style="stop-color:#E9E9E9;stop-opacity:0.0504"/><stop offset="0.4543" style="stop-color:#ACACAC;stop-opacity:0.2018"/><stop offset="0.5572" style="stop-color:#787878;stop-opacity:0.3523"/><stop offset="0.6569" style="stop-color:#4D4D4D;stop-opacity:0.4981"/><stop offset="0.7528" style="stop-color:#2B2B2B;stop-opacity:0.6385"/><stop offset="0.8441" style="stop-color:#131313;stop-opacity:0.7719"/><stop offset="0.9286" style="stop-color:#050505;stop-opacity:0.8956"/><stop offset="1" style="stop-color:#000000"/></linearGradient><polygon enable-background="new    " fill="url(#Circle_Shadow_1_)" id="Circle_Shadow" opacity="0.2" points="64.029,64   64.029,30.059 49,15.029 15.059,48.971 30.088,64 "/><circle cx="32" cy="32" fill="#0891CD" id="Circle" r="24"/><g id="shadow"><g><defs><circle cx="32.029" cy="32" id="SVGID_1_" r="24"/></defs><clipPath id="SVGID_2_"><use overflow="visible" xlink:href="#SVGID_1_"/></clipPath><linearGradient gradientTransform="matrix(1 0 0 -1 -274 -299)" gradientUnits="userSpaceOnUse" id="SVGID_3_" x1="339.6436" x2="305.3588" y1="-377.5566" y2="-318.1739"><stop offset="0.5459" style="stop-color:#000000;stop-opacity:0"/><stop offset="1" style="stop-color:#000000"/></linearGradient><polygon clip-path="url(#SVGID_2_)" enable-background="new    " fill="url(#SVGID_3_)" opacity="0.3" points="76.895,60     76.895,59.895 76.787,59.895 76.787,59.787 76.682,59.787 76.682,59.682 76.575,59.682 76.575,59.574 76.469,59.574     76.469,59.468 76.361,59.468 76.361,59.361 76.256,59.361 76.256,59.256 76.148,59.256 76.148,59.148 76.043,59.148     76.043,59.043 75.938,59.043 75.938,58.938 75.831,58.938 75.831,58.83 75.725,58.83 75.725,58.725 75.618,58.725 75.618,58.618     75.512,58.618 75.512,58.512 75.404,58.512 75.404,58.404 75.299,58.404 75.299,58.299 75.193,58.299 75.193,58.191     75.086,58.191 75.086,58.086 74.98,58.086 74.98,57.98 74.874,57.98 74.874,57.874 74.768,57.874 74.768,57.768 74.661,57.768     74.661,57.661 74.555,57.661 74.555,57.555 74.448,57.555 74.448,57.448 74.343,57.448 74.343,57.342 74.234,57.342     74.234,57.236 74.13,57.236 74.13,57.13 74.023,57.13 74.023,57.023 73.917,57.023 73.917,56.917 73.811,56.917 73.811,56.811     73.704,56.811 73.704,56.704 73.598,56.704 73.598,56.598 73.492,56.598 73.492,56.492 73.385,56.492 73.385,56.386     73.279,56.386 73.279,56.279 73.173,56.279 73.173,56.173 73.066,56.173 73.066,56.066 72.96,56.066 72.96,55.96 72.854,55.96     72.854,55.854 72.748,55.854 72.748,55.748 72.643,55.748 72.643,55.643 72.535,55.643 72.535,55.535 72.43,55.535 72.43,55.43     72.322,55.43 72.322,55.322 72.216,55.322 72.216,55.216 72.109,55.216 72.109,55.109 72.003,55.109 72.003,55.004 71.896,55.004     71.896,54.896 71.791,54.896 71.791,54.791 71.686,54.791 71.686,54.686 71.578,54.686 71.578,54.578 71.473,54.578     71.473,54.473 71.365,54.473 71.365,54.365 71.26,54.365 71.26,54.26 71.152,54.26 71.152,54.152 71.047,54.152 71.047,54.047     70.939,54.047 70.939,53.939 70.834,53.939 70.834,53.834 70.729,53.834 70.729,53.729 70.621,53.729 70.621,53.621     70.516,53.621 70.516,53.516 70.409,53.516 70.409,53.408 70.302,53.408 70.302,53.302 70.195,53.302 70.195,53.195 70.09,53.195     70.09,53.09 69.982,53.09 69.982,52.982 69.877,52.982 69.877,52.877 69.771,52.877 69.771,52.771 69.664,52.771 69.664,52.664     69.559,52.664 69.559,52.559 69.451,52.559 69.451,52.452 69.346,52.452 69.346,52.346 69.238,52.346 69.238,52.239     69.133,52.239 69.133,52.133 69.025,52.133 69.025,52.025 68.92,52.025 68.92,51.92 68.814,51.92 68.814,51.814 68.708,51.814     68.708,51.708 68.602,51.708 68.602,51.602 68.495,51.602 68.495,51.495 68.389,51.495 68.389,51.389 68.282,51.389     68.282,51.282 68.176,51.282 68.176,51.176 68.07,51.176 68.07,51.07 67.963,51.07 67.963,50.964 67.857,50.964 67.857,50.857     67.751,50.857 67.751,50.751 67.645,50.751 67.645,50.645 67.538,50.645 67.538,50.538 67.432,50.538 67.432,50.432     67.326,50.432 67.326,50.326 67.221,50.326 67.221,50.219 67.113,50.219 67.113,50.113 67.007,50.113 67.007,50.007 66.9,50.007     66.9,49.9 66.794,49.9 66.794,49.794 66.688,49.794 66.688,49.688 66.581,49.688 66.581,49.582 66.475,49.582 66.475,49.475     66.369,49.475 66.369,49.369 66.264,49.369 66.264,49.264 66.156,49.264 66.156,49.156 66.05,49.156 66.05,49.05 65.943,49.05     65.943,48.943 65.838,48.943 65.838,48.838 65.73,48.838 65.73,48.73 65.625,48.73 65.625,48.625 65.52,48.625 65.52,48.52     65.412,48.52 65.412,48.412 65.307,48.412 65.307,48.307 65.199,48.307 65.199,48.199 65.093,48.199 65.093,48.094 64.986,48.094     64.986,47.986 64.881,47.986 64.881,47.88 64.773,47.88 64.773,47.773 64.668,47.773 64.668,47.668 64.563,47.668 64.563,47.563     64.455,47.563 64.455,47.455 64.35,47.455 64.35,47.35 64.242,47.35 64.242,47.242 64.137,47.242 64.137,47.136 64.029,47.136     64.029,47.029 63.924,47.029 63.924,46.924 63.816,46.924 63.816,46.816 63.711,46.816 63.711,46.711 63.604,46.711     63.604,46.604 63.498,46.604 63.498,46.498 63.393,46.498 63.393,46.393 63.286,46.393 63.286,46.286 63.18,46.286 63.18,46.18     63.073,46.18 63.073,46.073 62.967,46.073 62.967,45.967 62.859,45.967 62.859,45.859 62.754,45.859 62.754,45.754 62.648,45.754     62.648,45.648 62.541,45.648 62.541,45.542 62.436,45.542 62.436,45.436 62.329,45.436 62.329,45.329 62.223,45.329     62.223,45.223 62.116,45.223 62.116,45.116 62.01,45.116 62.01,45.01 61.904,45.01 61.904,44.904 61.798,44.904 61.798,44.797     61.691,44.797 61.691,44.691 61.585,44.691 61.585,44.585 61.479,44.585 61.479,44.479 61.372,44.479 61.372,44.372     61.266,44.372 61.266,44.266 61.159,44.266 61.159,44.16 61.053,44.16 61.053,44.053 60.947,44.053 60.947,43.947 60.84,43.947     60.84,43.841 60.734,43.841 60.734,43.734 60.628,43.734 60.628,43.628 60.521,43.628 60.521,43.521 60.415,43.521 60.415,43.415     60.311,43.415 60.311,43.311 60.203,43.311 60.203,43.203 60.096,43.203 60.096,43.096 59.99,43.096 59.99,42.99 59.884,42.99     59.884,42.884 59.777,42.884 59.777,42.777 59.671,42.777 59.671,42.671 59.564,42.671 59.564,42.564 59.459,42.564     59.459,42.459 59.352,42.459 59.352,42.354 59.246,42.354 59.246,42.246 59.141,42.246 59.141,42.141 59.033,42.141     59.033,42.033 58.927,42.033 58.927,41.928 58.82,41.928 58.82,41.82 58.714,41.82 58.714,41.715 58.607,41.715 58.607,41.607     58.502,41.607 58.502,41.502 58.395,41.502 58.395,41.396 58.289,41.396 58.289,41.289 58.184,41.289 58.184,41.184     58.076,41.184 58.076,41.076 57.971,41.076 57.971,40.971 57.863,40.971 57.863,40.863 57.758,40.863 57.758,40.758 57.65,40.758     57.65,40.65 57.545,40.65 57.545,40.545 57.438,40.545 57.438,40.438 57.332,40.438 57.332,40.332 57.227,40.332 57.227,40.227     57.119,40.227 57.119,40.119 57.014,40.119 57.014,40.014 56.907,40.014 56.907,39.907 56.801,39.907 56.801,39.801     56.693,39.801 56.693,39.693 56.588,39.693 56.588,39.588 56.482,39.588 56.482,39.482 56.376,39.482 56.376,39.375 56.27,39.375     56.27,39.27 56.163,39.27 56.163,39.163 56.057,39.163 56.057,39.057 55.95,39.057 55.95,38.95 55.844,38.95 55.844,38.844     55.738,38.844 55.738,38.736 55.631,38.736 55.631,38.632 55.525,38.632 55.525,38.525 55.418,38.525 55.418,38.418     55.313,38.418 55.313,38.313 55.206,38.313 55.206,38.206 55.1,38.206 55.1,38.1 54.993,38.1 54.993,37.993 54.887,37.993     54.887,37.887 54.781,37.887 54.781,37.781 54.675,37.781 54.675,37.675 54.568,37.675 54.568,37.568 54.462,37.568     54.462,37.462 54.355,37.462 54.355,37.355 54.25,37.355 54.25,37.249 54.143,37.249 54.143,37.143 54.037,37.143 54.037,37.037     53.932,37.037 53.932,36.932 53.824,36.932 53.824,36.824 53.718,36.824 53.718,36.718 53.611,36.718 53.611,36.611     53.505,36.611 53.505,36.506 53.398,36.506 53.398,36.398 53.292,36.398 53.292,36.293 53.186,36.293 53.186,36.188 53.08,36.188     53.08,36.08 52.975,36.08 52.975,35.975 52.867,35.975 52.867,35.867 52.762,35.867 52.762,35.761 52.654,35.761 52.654,35.654     52.549,35.654 52.549,35.548 52.441,35.548 52.441,35.441 52.335,35.441 52.335,35.335 52.229,35.335 52.229,35.229     52.123,35.229 52.123,35.123 52.018,35.123 52.018,35.018 51.91,35.018 51.91,34.91 51.805,34.91 51.805,34.805 51.697,34.805     51.697,34.697 51.592,34.697 51.592,34.592 51.484,34.592 51.484,34.484 51.379,34.484 51.379,34.379 51.271,34.379     51.271,34.271 51.166,34.271 51.166,34.166 51.061,34.166 51.061,34.061 50.953,34.061 50.953,33.953 50.848,33.953     50.848,33.848 50.741,33.848 50.741,33.741 50.635,33.741 50.635,33.635 50.527,33.635 50.527,33.527 50.422,33.527     50.422,33.422 50.316,33.422 50.316,33.314 50.209,33.314 50.209,33.209 50.104,33.209 50.104,33.104 49.997,33.104     49.997,32.997 49.891,32.997 49.891,32.891 49.784,32.891 49.784,32.784 49.678,32.784 49.678,32.678 49.57,32.678 49.57,32.572     49.465,32.572 49.465,32.465 49.357,32.465 49.357,32.359 49.252,32.359 49.252,32.252 49.146,32.252 49.146,32.146 49.04,32.146     49.04,32.04 48.934,32.04 48.934,31.934 48.828,31.934 48.828,31.828 48.721,31.828 48.721,31.721 48.613,31.721 48.613,31.615     48.509,31.615 48.509,31.508 48.4,31.508 48.4,31.402 48.296,31.402 48.296,31.296 48.189,31.296 48.189,31.189 48.083,31.189     48.083,31.083 47.979,31.083 47.979,30.977 47.87,30.977 47.87,30.871 47.764,30.871 47.764,30.765 47.658,30.765 47.658,30.658     47.551,30.658 47.551,30.551 47.445,30.551 47.445,30.445 47.339,30.445 47.339,30.339 47.232,30.339 47.232,30.232     47.127,30.232 47.127,30.126 47.021,30.126 47.021,30.02 46.913,30.02 46.913,29.914 46.809,29.914 46.809,29.807 46.701,29.807     46.701,29.701 46.596,29.701 46.596,29.595 46.488,29.595 46.488,29.488 46.382,29.488 46.382,29.382 46.275,29.382     46.275,29.276 46.17,29.276 46.17,29.169 46.063,29.169 46.063,29.063 45.957,29.063 45.957,28.957 45.852,28.957 45.852,28.85     45.744,28.85 45.744,28.744 45.639,28.744 45.639,28.638 45.531,28.638 45.531,28.531 45.426,28.531 45.426,28.425 45.318,28.425     45.318,28.319 45.213,28.319 45.213,28.212 45.105,28.212 45.105,28.106 45,28.106 45,28 39,28 39,30.02 38.914,30.02     38.914,29.914 38.807,29.914 38.807,29.807 38.701,29.807 38.701,29.701 38.596,29.701 38.596,29.595 38.488,29.595     38.488,29.488 38.382,29.488 38.382,29.382 38.275,29.382 38.275,29.276 38.17,29.276 38.17,29.169 38.063,29.169 38.063,29.063     37.957,29.063 37.957,28.957 37.852,28.957 37.852,28.85 37.744,28.85 37.744,28.744 37.639,28.744 37.639,28.638 37.531,28.638     37.531,28.531 37.426,28.531 37.426,28.425 37.318,28.425 37.318,28.319 37.213,28.319 37.213,28.212 37.105,28.212     37.105,28.106 37,28.106 37,28 32.934,28 32.934,27.934 32.828,27.934 32.828,27.828 32.721,27.828 32.721,27.721 32.613,27.721     32.613,27.615 32.508,27.615 32.508,27.508 32.402,27.508 32.402,27.402 32.296,27.402 32.296,27.296 32.189,27.296     32.189,27.189 32.083,27.189 32.083,27.083 31.977,27.083 31.977,26.977 31.871,26.977 31.871,26.871 31.764,26.871     31.764,26.764 31.658,26.764 31.658,26.658 31.551,26.658 31.551,26.551 31.445,26.551 31.445,26.445 31.339,26.445     31.339,26.339 31.233,26.339 31.233,26.232 31.126,26.232 31.126,26.126 31.02,26.126 31.02,26.021 30.914,26.021 30.914,25.914     30.808,25.914 30.808,25.807 30.701,25.807 30.701,25.701 30.595,25.701 30.595,25.595 30.488,25.595 30.488,25.488     30.382,25.488 30.382,25.382 30.276,25.382 30.276,25.276 30.169,25.276 30.169,25.17 30.063,25.17 30.063,25.063 29.957,25.063     29.957,24.957 29.851,24.957 29.851,24.851 29.745,24.851 29.745,24.745 29.638,24.745 29.638,24.638 29.531,24.638     29.531,24.531 29.426,24.531 29.426,24.426 29.319,24.426 29.319,24.319 29.212,24.319 29.212,24.212 29.106,24.212     29.106,24.106 29,24.106 29,24 27,24 27,26 27.106,26 27.106,26.106 27.213,26.106 27.213,26.212 27.319,26.212 27.319,26.319     27.425,26.319 27.425,26.426 27.531,26.426 27.531,26.531 27.638,26.531 27.638,26.638 27.745,26.638 27.745,26.744     27.851,26.744 27.851,26.85 27.957,26.85 27.957,26.957 28.063,26.957 28.063,27.063 28.169,27.063 28.169,27.169 28.276,27.169     28.276,27.276 28.382,27.276 28.382,27.382 28.489,27.382 28.489,27.488 28.595,27.488 28.595,27.595 28.701,27.595     28.701,27.701 28.807,27.701 28.807,27.808 28.914,27.808 28.914,27.914 29.021,27.914 29.021,28.02 29.126,28.02 29.126,28.127     29.232,28.127 29.232,28.232 29.339,28.232 29.339,28.339 29.445,28.339 29.445,28.445 29.551,28.445 29.551,28.551     29.658,28.551 29.658,28.658 29.764,28.658 29.764,28.764 29.871,28.764 29.871,28.871 29.977,28.871 29.977,28.977     30.083,28.977 30.083,29.083 30.189,29.083 30.189,29.189 30.296,29.189 30.296,29.295 30.401,29.295 30.401,29.402     30.508,29.402 30.508,29.508 30.615,29.508 30.615,29.614 30.721,29.614 30.721,29.721 30.828,29.721 30.828,29.828     30.934,29.828 30.934,29.934 31,29.934 31,30.02 30.953,30.02 30.953,29.953 30.914,29.953 30.914,29.914 30.848,29.914     30.848,29.847 30.808,29.847 30.808,29.807 30.741,29.807 30.741,29.741 30.701,29.741 30.701,29.701 30.635,29.701     30.635,29.635 30.595,29.635 30.595,29.595 30.528,29.595 30.528,29.528 30.488,29.528 30.488,29.488 30.422,29.488     30.422,29.422 30.382,29.422 30.382,29.382 30.316,29.382 30.316,29.316 30.276,29.316 30.276,29.276 30.209,29.276     30.209,29.209 30.169,29.209 30.169,29.169 30.103,29.169 30.103,29.103 30.063,29.103 30.063,29.063 29.997,29.063     29.997,28.997 29.957,28.997 29.957,28.957 29.891,28.957 29.891,28.891 29.851,28.891 29.851,28.85 29.784,28.85 29.784,28.784     29.745,28.784 29.745,28.744 29.678,28.744 29.678,28.678 29.638,28.678 29.638,28.638 29.572,28.638 29.572,28.571     29.531,28.571 29.531,28.531 29.465,28.531 29.465,28.465 29.426,28.465 29.426,28.425 29.359,28.425 29.359,28.359     29.319,28.359 29.319,28.319 29.252,28.319 29.252,28.252 29.212,28.252 29.212,28.212 29.146,28.212 29.146,28.146     29.106,28.146 29.106,28.106 29.04,28.106 29.04,28.04 29,28.04 29,28 28.934,28 28.934,27.934 28.828,27.934 28.828,27.828     28.721,27.828 28.721,27.721 28.615,27.721 28.615,27.615 28.508,27.615 28.508,27.508 28.402,27.508 28.402,27.402     28.296,27.402 28.296,27.296 28.189,27.296 28.189,27.189 28.083,27.189 28.083,27.083 27.977,27.083 27.977,26.977     27.871,26.977 27.871,26.871 27.764,26.871 27.764,26.764 27.658,26.764 27.658,26.658 27.551,26.658 27.551,26.551     27.445,26.551 27.445,26.445 27.339,26.445 27.339,26.339 27.232,26.339 27.232,26.232 27.127,26.232 27.127,26.126 27.02,26.126     27.02,26.021 26.914,26.021 26.914,25.914 26.807,25.914 26.807,25.807 26.701,25.807 26.701,25.701 26.595,25.701 26.595,25.595     26.488,25.595 26.488,25.488 26.382,25.488 26.382,25.382 26.276,25.382 26.276,25.276 26.17,25.276 26.17,25.17 26.063,25.17     26.063,25.063 25.957,25.063 25.957,24.957 25.85,24.957 25.85,24.851 25.744,24.851 25.744,24.745 25.638,24.745 25.638,24.638     25.531,24.638 25.531,24.531 25.426,24.531 25.426,24.426 25.319,24.426 25.319,24.319 25.213,24.319 25.213,24.212     25.106,24.212 25.106,24.106 25,24.106 25,24 23,24 23,28 19,28 19,36 19.106,36 19.106,36.105 19.213,36.105 19.213,36.213     19.319,36.213 19.319,36.318 19.425,36.318 19.425,36.426 19.531,36.426 19.531,36.531 19.638,36.531 19.638,36.639     19.745,36.639 19.745,36.744 19.85,36.744 19.85,36.852 19.957,36.852 19.957,36.957 20.063,36.957 20.063,37.063 20.17,37.063     20.17,37.169 20.276,37.169 20.276,37.275 20.382,37.275 20.382,37.382 20.489,37.382 20.489,37.488 20.595,37.488 20.595,37.596     20.701,37.596 20.701,37.7 20.807,37.7 20.807,37.809 20.914,37.809 20.914,37.914 21.02,37.914 21.02,38.02 21.126,38.02     21.126,38.127 21.232,38.127 21.232,38.232 21.339,38.232 21.339,38.339 21.445,38.339 21.445,38.445 21.551,38.445     21.551,38.551 21.658,38.551 21.658,38.658 21.764,38.658 21.764,38.764 21.871,38.764 21.871,38.871 21.977,38.871     21.977,38.977 22.083,38.977 22.083,39.083 22.189,39.083 22.189,39.189 22.296,39.189 22.296,39.296 22.402,39.296     22.402,39.402 22.508,39.402 22.508,39.508 22.615,39.508 22.615,39.614 22.721,39.614 22.721,39.723 22.827,39.723     22.827,39.827 22.934,39.827 22.934,39.934 23.04,39.934 23.04,40.04 23.146,40.04 23.146,40.146 23.252,40.146 23.252,40.253     23.359,40.253 23.359,40.357 23.465,40.357 23.465,40.465 23.571,40.465 23.571,40.57 23.678,40.57 23.678,40.678 23.784,40.678     23.784,40.783 23.891,40.783 23.891,40.891 23.997,40.891 23.997,40.997 24.103,40.997 24.103,41.104 24.209,41.104     24.209,41.209 24.316,41.209 24.316,41.314 24.422,41.314 24.422,41.422 24.528,41.422 24.528,41.527 24.635,41.527     24.635,41.635 24.741,41.635 24.741,41.741 24.847,41.741 24.847,41.848 24.953,41.848 24.953,41.953 25.06,41.953 25.06,42.061     25.166,42.061 25.166,42.166 25.272,42.166 25.272,42.271 25.379,42.271 25.379,42.379 25.485,42.379 25.485,42.484     25.591,42.484 25.591,42.591 25.698,42.591 25.698,42.698 25.804,42.698 25.804,42.805 25.91,42.805 25.91,42.91 26.017,42.91     26.017,43.018 26.123,43.018 26.123,43.123 26.229,43.123 26.229,43.229 26.335,43.229 26.335,43.336 26.442,43.336     26.442,43.441 26.548,43.441 26.548,43.549 26.654,43.549 26.654,43.654 26.761,43.654 26.761,43.761 26.867,43.761     26.867,43.867 26.974,43.867 26.974,43.975 27.08,43.975 27.08,44.08 27.187,44.08 27.187,44.186 27.292,44.186 27.292,44.292     27.398,44.292 27.398,44.398 27.506,44.398 27.506,44.506 27.611,44.506 27.611,44.611 27.717,44.611 27.717,44.717     27.824,44.717 27.824,44.824 27.931,44.824 27.931,44.932 28.037,44.932 28.037,45.037 28.143,45.037 28.143,45.143     28.249,45.143 28.249,45.249 28.356,45.249 28.356,45.355 28.462,45.355 28.462,45.462 28.568,45.462 28.568,45.568     28.674,45.568 28.674,45.675 28.781,45.675 28.781,45.781 28.887,45.781 28.887,45.887 28.993,45.887 28.993,45.993 29.1,45.993     29.1,46.1 29.207,46.1 29.207,46.206 29.313,46.206 29.313,46.313 29.418,46.313 29.418,46.419 29.525,46.419 29.525,46.525     29.632,46.525 29.632,46.632 29.737,46.632 29.737,46.736 29.844,46.736 29.844,46.844 29.95,46.844 29.95,46.95 30.057,46.95     30.057,47.057 30.163,47.057 30.163,47.163 30.269,47.163 30.269,47.27 30.375,47.27 30.375,47.375 30.482,47.375 30.482,47.48     30.588,47.48 30.588,47.588 30.694,47.588 30.694,47.693 30.801,47.693 30.801,47.801 30.907,47.801 30.907,47.907 31.014,47.907     31.014,48.014 31.119,48.014 31.119,48.119 31.226,48.119 31.226,48.227 31.333,48.227 31.333,48.332 31.438,48.332     31.438,48.438 31.544,48.438 31.544,48.545 31.651,48.545 31.651,48.65 31.758,48.65 31.758,48.758 31.864,48.758 31.864,48.863     31.97,48.863 31.97,48.971 32.077,48.971 32.077,49.076 32.183,49.076 32.183,49.184 32.289,49.184 32.289,49.289 32.395,49.289     32.395,49.395 32.502,49.395 32.502,49.502 32.607,49.502 32.607,49.607 32.714,49.607 32.714,49.715 32.82,49.715 32.82,49.82     32.927,49.82 32.927,49.927 33.033,49.927 33.033,50.033 33.141,50.033 33.141,50.141 33.246,50.141 33.246,50.246 33.354,50.246     33.354,50.352 33.459,50.352 33.459,50.459 33.564,50.459 33.564,50.564 33.671,50.564 33.671,50.671 33.777,50.671     33.777,50.777 33.884,50.777 33.884,50.884 33.99,50.884 33.99,50.99 34.096,50.99 34.096,51.096 34.203,51.096 34.203,51.203     34.311,51.203 34.311,51.311 34.415,51.311 34.415,51.415 34.521,51.415 34.521,51.521 34.628,51.521 34.628,51.628     34.734,51.628 34.734,51.734 34.841,51.734 34.841,51.841 34.945,51.841 34.945,51.947 35.053,51.947 35.053,52.053 35.16,52.053     35.16,52.159 35.266,52.159 35.266,52.266 35.372,52.266 35.372,52.372 35.479,52.372 35.479,52.479 35.585,52.479 35.585,52.585     35.691,52.585 35.691,52.691 35.798,52.691 35.798,52.797 35.902,52.797 35.902,52.902 36.01,52.902 36.01,53.01 36.116,53.01     36.116,53.116 36.223,53.116 36.223,53.223 36.329,53.223 36.329,53.329 36.436,53.329 36.436,53.436 36.542,53.436     36.542,53.541 36.646,53.541 36.646,53.646 36.754,53.646 36.754,53.754 36.859,53.754 36.859,53.861 36.967,53.861     36.967,53.967 37.073,53.967 37.073,54.073 37.18,54.073 37.18,54.18 37.285,54.18 37.285,54.285 37.393,54.285 37.393,54.393     37.498,54.393 37.498,54.498 37.605,54.498 37.605,54.605 37.711,54.605 37.711,54.711 37.816,54.711 37.816,54.816     37.924,54.816 37.924,54.924 38.029,54.924 38.029,55.029 38.137,55.029 38.137,55.137 38.242,55.137 38.242,55.242 38.35,55.242     38.35,55.35 38.455,55.35 38.455,55.455 38.563,55.455 38.563,55.563 38.668,55.563 38.668,55.668 38.773,55.668 38.773,55.773     38.881,55.773 38.881,55.881 38.986,55.881 38.986,55.986 39.093,55.986 39.093,56.093 39.199,56.093 39.199,56.199     39.307,56.199 39.307,56.307 39.412,56.307 39.412,56.412 39.52,56.412 39.52,56.52 39.625,56.52 39.625,56.625 39.73,56.625     39.73,56.73 39.838,56.73 39.838,56.837 39.943,56.837 39.943,56.943 40.05,56.943 40.05,57.05 40.156,57.05 40.156,57.156     40.262,57.156 40.262,57.264 40.369,57.264 40.369,57.369 40.475,57.369 40.475,57.475 40.582,57.475 40.582,57.581     40.688,57.581 40.688,57.688 40.794,57.688 40.794,57.794 40.9,57.794 40.9,57.9 41.007,57.9 41.007,58.007 41.113,58.007     41.113,58.113 41.221,58.113 41.221,58.219 41.326,58.219 41.326,58.325 41.432,58.325 41.432,58.432 41.538,58.432     41.538,58.538 41.645,58.538 41.645,58.645 41.751,58.645 41.751,58.751 41.857,58.751 41.857,58.857 41.964,58.857     41.964,58.963 42.068,58.963 42.068,59.068 42.176,59.068 42.176,59.176 42.282,59.176 42.282,59.283 42.389,59.283     42.389,59.389 42.495,59.389 42.495,59.495 42.602,59.495 42.602,59.602 42.707,59.602 42.707,59.707 42.814,59.707     42.814,59.813 42.92,59.813 42.92,59.92 43.025,59.92 43.025,60.027 43.133,60.027 43.133,60.133 43.238,60.133 43.238,60.239     43.346,60.239 43.346,60.346 43.452,60.346 43.452,60.452 43.559,60.452 43.559,60.559 43.664,60.559 43.664,60.664     43.771,60.664 43.771,60.771 43.877,60.771 43.877,60.877 43.982,60.877 43.982,60.982 44.09,60.982 44.09,61.09 44.195,61.09     44.195,61.195 44.303,61.195 44.303,61.303 44.409,61.303 44.409,61.408 44.516,61.408 44.516,61.516 44.621,61.516     44.621,61.621 44.729,61.621 44.729,61.729 44.834,61.729 44.834,61.834 44.939,61.834 44.939,61.939 45.047,61.939     45.047,62.047 45.152,62.047 45.152,62.152 45.26,62.152 45.26,62.26 45.365,62.26 45.365,62.365 45.473,62.365 45.473,62.473     45.578,62.473 45.578,62.578 45.686,62.578 45.686,62.686 45.791,62.686 45.791,62.791 45.896,62.791 45.896,62.896     46.004,62.896 46.004,63.003 46.109,63.003 46.109,63.109 46.216,63.109 46.216,63.216 46.322,63.216 46.322,63.322 46.43,63.322     46.43,63.43 46.535,63.43 46.535,63.535 46.643,63.535 46.643,63.641 46.747,63.641 46.747,63.747 46.854,63.747 46.854,63.854     46.96,63.854 46.96,63.96 47.066,63.96 47.066,64.066 47.173,64.066 47.173,64.173 47.279,64.173 47.279,64.279 47.387,64.279     47.387,64.385 47.491,64.385 47.491,64.491 47.598,64.491 47.598,64.6 47.704,64.6 47.704,64.704 47.811,64.704 47.811,64.811     47.917,64.811 47.917,64.917 48.023,64.917 48.023,65.023 48.13,65.023 48.13,65.13 48.236,65.13 48.236,65.234 48.342,65.234     48.342,65.343 48.448,65.343 48.448,65.448 48.555,65.448 48.555,65.555 48.661,65.555 48.661,65.661 48.768,65.661     48.768,65.768 48.874,65.768 48.874,65.874 48.98,65.874 48.98,65.979 49.087,65.979 49.087,66.087 49.191,66.087 49.191,66.193     49.299,66.193 49.299,66.299 49.404,66.299 49.404,66.404 49.512,66.404 49.512,66.512 49.618,66.512 49.618,66.618     49.725,66.618 49.725,66.725 49.831,66.725 49.831,66.83 49.938,66.83 49.938,66.938 50.043,66.938 50.043,67.043 50.148,67.043     50.148,67.148 50.256,67.148 50.256,67.256 50.361,67.256 50.361,67.361 50.469,67.361 50.469,67.469 50.574,67.469     50.574,67.574 50.682,67.574 50.682,67.682 50.787,67.682 50.787,67.787 50.895,67.787 50.895,67.895 51,67.895 51,68 57,68     57,65.979 57.047,65.979 57.047,66.047 57.087,66.047 57.087,66.087 57.152,66.087 57.152,66.152 57.193,66.152 57.193,66.193     57.26,66.193 57.26,66.26 57.299,66.26 57.299,66.299 57.365,66.299 57.365,66.365 57.404,66.365 57.404,66.404 57.473,66.404     57.473,66.473 57.512,66.473 57.512,66.512 57.578,66.512 57.578,66.578 57.618,66.578 57.618,66.618 57.686,66.618     57.686,66.686 57.725,66.686 57.725,66.725 57.791,66.725 57.791,66.791 57.83,66.791 57.83,66.83 57.896,66.83 57.896,66.896     57.938,66.896 57.938,66.938 58.003,66.938 58.003,67.003 58.043,67.003 58.043,67.043 58.109,67.043 58.109,67.109     58.148,67.109 58.148,67.148 58.216,67.148 58.216,67.216 58.256,67.216 58.256,67.256 58.322,67.256 58.322,67.322     58.361,67.322 58.361,67.361 58.43,67.361 58.43,67.43 58.468,67.43 58.468,67.469 58.535,67.469 58.535,67.535 58.574,67.535     58.574,67.574 58.641,67.574 58.641,67.641 58.682,67.641 58.682,67.682 58.747,67.682 58.747,67.748 58.787,67.748     58.787,67.787 58.854,67.787 58.854,67.854 58.895,67.854 58.895,67.895 58.96,67.895 58.96,67.96 59,67.96 59,68 59.066,68     59.066,68.066 59.173,68.066 59.173,68.173 59.279,68.173 59.279,68.279 59.387,68.279 59.387,68.386 59.492,68.386     59.492,68.491 59.598,68.491 59.598,68.6 59.704,68.6 59.704,68.704 59.811,68.704 59.811,68.811 59.917,68.811 59.917,68.917     60.023,68.917 60.023,69.023 60.13,69.023 60.13,69.129 60.236,69.129 60.236,69.236 60.342,69.236 60.342,69.342 60.448,69.342     60.448,69.448 60.555,69.448 60.555,69.555 60.661,69.555 60.661,69.661 60.768,69.661 60.768,69.768 60.874,69.768     60.874,69.874 60.98,69.874 60.98,69.979 61.087,69.979 61.087,70.087 61.191,70.087 61.191,70.191 61.299,70.191 61.299,70.299     61.404,70.299 61.404,70.404 61.512,70.404 61.512,70.512 61.618,70.512 61.618,70.618 61.725,70.618 61.725,70.725     61.831,70.725 61.831,70.83 61.938,70.83 61.938,70.938 62.043,70.938 62.043,71.043 62.148,71.043 62.148,71.148 62.256,71.148     62.256,71.256 62.361,71.256 62.361,71.361 62.468,71.361 62.468,71.469 62.575,71.469 62.575,71.575 62.682,71.575     62.682,71.682 62.787,71.682 62.787,71.787 62.895,71.787 62.895,71.895 63,71.895 63,72 67,72 69,72 69,70 69,69.979     69.087,69.979 69.087,70.087 69.193,70.087 69.193,70.191 69.3,70.191 69.3,70.299 69.406,70.299 69.406,70.404 69.514,70.404     69.514,70.512 69.619,70.512 69.619,70.618 69.725,70.618 69.725,70.725 69.832,70.725 69.832,70.83 69.938,70.83 69.938,70.938     70.044,70.938 70.044,71.043 70.15,71.043 70.15,71.148 70.257,71.148 70.257,71.256 70.363,71.256 70.363,71.361 70.471,71.361     70.471,71.469 70.576,71.469 70.576,71.575 70.682,71.575 70.682,71.682 70.788,71.682 70.788,71.787 70.895,71.787     70.895,71.895 71.001,71.895 71.001,72 75,72 77,72 77,70 77,60   "/></g></g><g id="digg"><path d="M31,36h4v2h-4v2h4h2v-2V28h-6V36z M33,30h2v4h-2V30z" fill="#FFFFFF" id="g_3_"/><path d="M39,28v8h4v2h-3.999v2H43h2v-2V28H39z M43,34h-2v-4h2V34z" fill="#FFFFFF" id="g_2_"/><g id="i_1_"><rect fill="#FFFFFF" height="8" id="_x7C__1_" width="2" x="27" y="28"/><rect fill="#FFFFFF" height="2" id="_x2E__1_" width="2" x="27" y="24"/></g><path d="M23,28h-4v8h6V24h-2V28z M23,34h-2v-4h2V34z" fill="#FFFFFF" id="d_1_"/></g></svg>